<svg width="20" height="20" viewBox="0 0 20 20" fill="none" xmlns="http://www.w3.org/2000/svg">
<path d="M15.053 1.00717L15.1697 1.23901L16.0425 3.56199C16.1107 3.74383 16.2547 3.8893 16.438 3.95749L18.6807 4.80001C19.6656 5.16823 20.1945 6.21986 19.9323 7.21542L19.8687 7.41241L18.8261 9.72024C18.786 9.80825 18.7653 9.90385 18.7653 10.0006C18.7653 10.0973 18.786 10.1929 18.8261 10.2809L19.8172 12.463C20.0245 12.9204 20.055 13.4384 19.9028 13.9169C19.7505 14.3955 19.4263 14.8006 18.9928 15.0542L18.761 15.1708L16.438 16.0437C16.348 16.0778 16.2663 16.1307 16.1984 16.1989C16.1304 16.2671 16.0778 16.349 16.044 16.4392L15.2015 18.6818C15.0251 19.1527 14.6803 19.5413 14.2338 19.7726C13.7873 20.0038 13.2709 20.0611 12.7846 19.9335L12.5876 19.8698L10.2798 18.8273C10.1917 18.7872 10.0961 18.7664 9.99942 18.7664C9.9027 18.7664 9.8071 18.7872 9.71909 18.8273L7.53855 19.8183C7.08116 20.0257 6.56316 20.0562 6.0846 19.9039C5.60603 19.7517 5.20087 19.4275 4.94736 18.994L4.83068 18.7621L3.95634 16.4392C3.9222 16.3492 3.86926 16.2675 3.80106 16.1995C3.73287 16.1316 3.65097 16.079 3.56084 16.0452L1.31817 15.2027C0.847321 15.0263 0.458664 14.6814 0.227441 14.235C-0.00378106 13.7885 -0.061122 13.2721 0.0665194 12.7857L0.130163 12.5887L1.17422 10.2809C1.21424 10.1929 1.23495 10.0973 1.23495 10.0006C1.23495 9.90387 1.21424 9.80828 1.17422 9.72024L0.181683 7.5397C-0.0257966 7.08249 -0.0565241 6.56462 0.0954335 6.08608C0.247391 5.60754 0.571257 5.20226 1.0045 4.94851L1.23634 4.83183L3.56084 3.95598C3.65112 3.92202 3.73311 3.86916 3.80132 3.80096C3.86952 3.73275 3.92238 3.65076 3.95634 3.56048L4.79885 1.31781C4.97523 0.847286 5.31981 0.458874 5.76596 0.227681C6.21212 -0.00351232 6.72814 -0.0610628 7.21427 0.0661577L7.41126 0.129801L9.71909 1.17385C9.80713 1.21388 9.90271 1.23459 9.99942 1.23459C10.0961 1.23459 10.1917 1.21388 10.2798 1.17385L12.4618 0.182837C12.919 -0.0246428 13.4369 -0.0553703 13.9154 0.0965872C14.394 0.248545 14.7992 0.573926 15.053 1.00717ZM13.2801 6.52444L8.45077 12.0402L6.68997 10.2794C6.56204 10.157 6.39127 10.0895 6.21422 10.0915C6.03717 10.0934 5.86793 10.1646 5.74273 10.2898C5.61753 10.415 5.54633 10.5843 5.54438 10.7613C5.54243 10.9384 5.60988 11.1091 5.73229 11.2371L8.00526 13.5101C8.07086 13.5755 8.14919 13.6268 8.2354 13.6607C8.32161 13.6947 8.41388 13.7106 8.50648 13.7075C8.59909 13.7044 8.69007 13.6823 8.77379 13.6426C8.85752 13.6029 8.93221 13.5464 8.99325 13.4767L14.2969 7.41545C14.4049 7.27912 14.4563 7.10648 14.4405 6.93329C14.4247 6.7601 14.3428 6.59962 14.212 6.48509C14.0811 6.37057 13.9112 6.31078 13.7374 6.3181C13.5636 6.32543 13.4009 6.39931 13.2801 6.52444Z" fill="black"/>
</svg>
