<svg width="23" height="20" viewBox="0 0 23 20" fill="none" xmlns="http://www.w3.org/2000/svg">
<path d="M21.7519 9.12141L16.6475 5.01567V2.21932C16.6746 1.65888 16.4785 1.11053 16.102 0.6945C15.7255 0.278472 15.1993 0.0287186 14.639 0H1.98884C1.43242 0.0343547 0.911943 0.286551 0.540158 0.701953C0.168373 1.11736 -0.0247777 1.66251 0.00255054 2.21932V13.3159C-0.00774846 13.7566 0.113399 14.1903 0.350551 14.5619C0.587702 14.9334 0.930116 15.2259 1.33414 15.4021C1.12978 15.902 1.05014 16.4442 1.10208 16.9818C1.15402 17.5194 1.33598 18.0363 1.63228 18.4879C1.92857 18.9395 2.33029 19.3122 2.80278 19.5739C3.27527 19.8356 3.80433 19.9783 4.34431 19.9899C4.8843 20.0015 5.41899 19.8815 5.90225 19.6403C6.38551 19.3991 6.80283 19.0439 7.1182 18.6055C7.43356 18.167 7.6375 17.6584 7.71243 17.1235C7.78735 16.5886 7.731 16.0435 7.54824 15.5353H14.6057C14.4232 16.0381 14.3645 16.5775 14.4347 17.1078C14.5049 17.6381 14.7018 18.1436 15.0088 18.5817C15.3159 19.0197 15.7239 19.3773 16.1984 19.6242C16.673 19.8711 17.2 20 17.7349 20C18.2698 20 18.7969 19.8711 19.2714 19.6242C19.746 19.3773 20.154 19.0197 20.461 18.5817C20.768 18.1436 20.965 17.6381 21.0351 17.1078C21.1053 16.5775 21.0467 16.0381 20.8642 15.5353H21.0861C21.3804 15.5353 21.6627 15.4183 21.8708 15.2102C22.0789 15.0021 22.1958 14.7199 22.1958 14.4256V9.98695C22.1924 9.81844 22.1506 9.65292 22.0737 9.50295C21.9968 9.35298 21.8868 9.2225 21.7519 9.12141ZM19.9764 10.5196V13.3159H16.6475V7.8564L19.9764 10.5196ZM5.55085 16.6449C5.55085 16.8644 5.48577 17.0789 5.36384 17.2614C5.24191 17.4439 5.06861 17.5861 4.86584 17.6701C4.66308 17.7541 4.43996 17.7761 4.22471 17.7333C4.00946 17.6904 3.81173 17.5848 3.65655 17.4296C3.50136 17.2744 3.39567 17.0767 3.35285 16.8614C3.31004 16.6461 3.33201 16.423 3.416 16.2203C3.49999 16.0175 3.64222 15.8442 3.8247 15.7223C4.00718 15.6003 4.22172 15.5353 4.44119 15.5353C4.73549 15.5353 5.01774 15.6522 5.22584 15.8603C5.43394 16.0684 5.55085 16.3506 5.55085 16.6449ZM18.8668 16.6449C18.8668 16.8644 18.8017 17.0789 18.6798 17.2614C18.5578 17.4439 18.3845 17.5861 18.1818 17.6701C17.979 17.7541 17.7559 17.7761 17.5406 17.7333C17.3254 17.6904 17.1277 17.5848 16.9725 17.4296C16.8173 17.2744 16.7116 17.0767 16.6688 16.8614C16.626 16.6461 16.6479 16.423 16.7319 16.2203C16.8159 16.0175 16.9581 15.8442 17.1406 15.7223C17.3231 15.6003 17.5377 15.5353 17.7571 15.5353C18.0514 15.5353 18.3337 15.6522 18.5418 15.8603C18.7499 16.0684 18.8668 16.3506 18.8668 16.6449Z" fill="black"/>
</svg>
