<svg width="27" height="26" viewBox="0 0 27 26" fill="none" xmlns="http://www.w3.org/2000/svg">
<g id="Group">
<path id="Vector" d="M3.02558 18.5968C1.9104 14.1361 1.35281 11.907 2.52388 10.4071C3.69365 8.90723 5.9942 8.90723 10.5914 8.90723H16.6092C21.2077 8.90723 23.5057 8.90723 24.6768 10.4071C25.8478 11.9057 25.2902 14.1374 24.1751 18.5968C23.4654 21.4342 23.1119 22.8522 22.0539 23.6789C20.9959 24.5042 19.5337 24.5042 16.6092 24.5042H10.5914C7.66698 24.5042 6.20476 24.5042 5.14677 23.6789C4.08877 22.8522 3.73394 21.4342 3.02558 18.5968Z" stroke="white" stroke-width="1.94962"/>
<path id="Vector_2" d="M23.3478 9.5573L22.4249 6.17146C22.0688 4.86521 21.8907 4.21274 21.5255 3.72014C21.1614 3.23074 20.6668 2.85373 20.0984 2.63225C19.5265 2.40869 18.8506 2.40869 17.4989 2.40869M3.85156 9.5573L4.77438 6.17146C5.13051 4.86521 5.30858 4.21274 5.67381 3.72014C6.03797 3.23074 6.53254 2.85373 7.10093 2.63225C7.67282 2.40869 8.34869 2.40869 9.70042 2.40869" stroke="white" stroke-width="1.94962"/>
<path id="Vector_3" d="M9.70117 2.40863C9.70117 2.06392 9.83811 1.73332 10.0819 1.48957C10.3256 1.24582 10.6562 1.10889 11.0009 1.10889H16.1999C16.5446 1.10889 16.8752 1.24582 17.119 1.48957C17.3627 1.73332 17.4997 2.06392 17.4997 2.40863C17.4997 2.75335 17.3627 3.08394 17.119 3.32769C16.8752 3.57144 16.5446 3.70838 16.1999 3.70838H11.0009C10.6562 3.70838 10.3256 3.57144 10.0819 3.32769C9.83811 3.08394 9.70117 2.75335 9.70117 2.40863Z" stroke="white" stroke-width="1.94962"/>
</g>
</svg>
