<svg width="102" height="18" viewBox="0 0 102 18" fill="none" xmlns="http://www.w3.org/2000/svg">
<path d="M9 0L11.2324 5.92735L17.5595 6.21885L12.6121 10.1736L14.2901 16.2812L9 12.798L3.70993 16.2812L5.38789 10.1736L0.440492 6.21885L6.76759 5.92735L9 0Z" fill="#FEBB00"/>
<path d="M30 0L32.2324 5.92735L38.5595 6.21885L33.6121 10.1736L35.2901 16.2812L30 12.798L24.7099 16.2812L26.3879 10.1736L21.4405 6.21885L27.7676 5.92735L30 0Z" fill="#FEBB00"/>
<path d="M51 0L53.2324 5.92735L59.5595 6.21885L54.6121 10.1736L56.2901 16.2812L51 12.798L45.7099 16.2812L47.3879 10.1736L42.4405 6.21885L48.7676 5.92735L51 0Z" fill="#FEBB00"/>
<path d="M72 0L74.2324 5.92735L80.5595 6.21885L75.6121 10.1736L77.2901 16.2812L72 12.798L66.7099 16.2812L68.3879 10.1736L63.4405 6.21885L69.7676 5.92735L72 0Z" fill="#FEBB00"/>
<path d="M93 0L95.2324 5.92735L101.56 6.21885L96.6121 10.1736L98.2901 16.2812L93 12.798L87.7099 16.2812L89.3879 10.1736L84.4405 6.21885L90.7676 5.92735L93 0Z" fill="#FEBB00"/>
</svg>
