<svg width="21" height="20" viewBox="0 0 21 20" fill="none" xmlns="http://www.w3.org/2000/svg">
<path d="M10.3559 1.05004C10.5358 0.870127 10.7798 0.769052 11.0343 0.769052C11.2887 0.769052 11.5327 0.870127 11.7126 1.05004C11.8926 1.22996 11.9936 1.47398 11.9936 1.72842C11.9936 1.98285 11.8926 2.22687 11.7126 2.40679L8.35823 5.7612L13.4563 5.65266C14.8212 5.61304 16.4835 6.1552 17.8109 7.24711C19.1677 8.36506 20.2037 10.0827 20.2037 12.3751C20.2031 14.7081 19.1465 16.3758 17.8538 17.4384C16.6002 18.4696 15.085 18.9667 14.0256 18.9677L14.0234 18.9677L1.81166 19.0155C1.68435 19.0182 1.55777 18.9955 1.43931 18.9488C1.32085 18.902 1.21288 18.8322 1.1217 18.7433C1.03052 18.6544 0.957953 18.5482 0.908226 18.431C0.8585 18.3137 0.832611 18.1878 0.832071 18.0604C0.831531 17.9331 0.856349 17.8069 0.905079 17.6893C0.953808 17.5716 1.02548 17.4648 1.1159 17.3752C1.20632 17.2855 1.31369 17.2147 1.43175 17.167C1.54981 17.1192 1.67619 17.0955 1.80352 17.0971L14.0196 17.0482H14.024C14.5917 17.0482 15.6863 16.7373 16.6355 15.9563C17.5461 15.2085 18.2853 14.059 18.2853 12.3745C18.2853 10.7193 17.5575 9.52264 16.592 8.72759C15.5978 7.91028 14.3805 7.54396 13.5095 7.56947L13.5014 7.57001L8.02338 7.68724L11.5167 11.1806C11.6966 11.3605 11.7977 11.6045 11.7977 11.859C11.7977 12.1134 11.6966 12.3574 11.5167 12.5373C11.3368 12.7172 11.0928 12.8183 10.8384 12.8183C10.5839 12.8183 10.3399 12.7172 10.16 12.5373L5.19267 7.57001C4.81821 7.19555 4.81821 6.58773 5.19267 6.21327L10.3559 1.05004Z" fill="black"/>
</svg>
