<svg width="20" height="20" viewBox="0 0 20 20" fill="none" xmlns="http://www.w3.org/2000/svg">
<path d="M11.0782 1.82512e-06C11.3722 1.82512e-06 11.6352 0.183 11.7342 0.456996L12.4402 2.41397C12.6932 2.47697 12.9102 2.53997 13.0942 2.60597C13.2952 2.67797 13.5542 2.78697 13.8742 2.93597L15.5182 2.06598C15.6524 1.99488 15.806 1.96922 15.956 1.99284C16.106 2.01646 16.2443 2.08809 16.3502 2.19698L17.7962 3.69196C17.9881 3.89095 18.0421 4.18195 17.9342 4.43595L17.1632 6.24293C17.2912 6.47792 17.3932 6.67892 17.4712 6.84692C17.5552 7.02992 17.6592 7.28191 17.7832 7.60691L19.5801 8.3769C19.8501 8.4919 20.0171 8.7619 19.9991 9.05089L19.8671 11.1259C19.8581 11.2607 19.8097 11.3899 19.7279 11.4974C19.6462 11.605 19.5346 11.6861 19.4071 11.7309L17.7052 12.3359C17.6562 12.5709 17.6052 12.7718 17.5512 12.9418C17.4641 13.2044 17.3646 13.4627 17.2532 13.7158L18.1081 15.6058C18.1685 15.7386 18.1847 15.8872 18.1545 16.0299C18.1243 16.1726 18.0492 16.3019 17.9402 16.3988L16.3142 17.8508C16.2071 17.946 16.0735 18.0062 15.9312 18.0234C15.7889 18.0405 15.6448 18.0138 15.5182 17.9468L13.8422 17.0588C13.58 17.1976 13.3095 17.3202 13.0322 17.4258L12.3002 17.6998L11.6502 19.4998C11.6021 19.6316 11.5152 19.7458 11.401 19.8273C11.2867 19.9089 11.1505 19.954 11.0102 19.9568L9.11026 19.9998C8.96622 20.0035 8.82455 19.9626 8.70475 19.8825C8.58495 19.8025 8.4929 19.6873 8.44127 19.5528L7.67527 17.5258C7.41393 17.4365 7.15516 17.3398 6.89928 17.2358C6.69 17.1452 6.48388 17.0475 6.28129 16.9428L4.38131 17.7548C4.25612 17.8082 4.11811 17.8241 3.98406 17.8004C3.85002 17.7768 3.72573 17.7148 3.62632 17.6218L2.22034 16.3028C2.11566 16.205 2.04437 16.0768 2.01656 15.9363C1.98874 15.7958 2.00581 15.6501 2.06534 15.5198L2.88233 13.7398C2.77368 13.529 2.67294 13.3142 2.58034 13.0958C2.47224 12.8286 2.37219 12.5581 2.28034 12.2849L0.490362 11.7399C0.344864 11.6959 0.217959 11.6051 0.129356 11.4816C0.0407521 11.3581 -0.00459125 11.2088 0.000367465 11.0569L0.0703666 9.13589C0.0753491 9.01055 0.114503 8.88896 0.183593 8.78427C0.252684 8.67958 0.349082 8.59577 0.462362 8.5419L2.34034 7.63991C2.42734 7.32091 2.50334 7.07292 2.57034 6.89192C2.66468 6.65017 2.76944 6.41261 2.88433 6.17993L2.07034 4.45995C2.00857 4.32933 1.98981 4.18249 2.01676 4.04054C2.04372 3.89859 2.11499 3.76884 2.22034 3.66996L3.62432 2.34397C3.72274 2.25115 3.84589 2.18874 3.97895 2.16426C4.112 2.13977 4.2493 2.15426 4.37431 2.20598L6.27229 2.98997C6.48229 2.84997 6.67229 2.73697 6.84428 2.64597C7.04928 2.53697 7.32328 2.42297 7.66828 2.29997L8.32827 0.458996C8.37706 0.324266 8.46625 0.207881 8.58366 0.125731C8.70106 0.0435821 8.84097 -0.000326247 8.98426 1.82512e-06H11.0782ZM10.0242 7.01892C8.35727 7.01892 7.00628 8.3539 7.00628 10.0019C7.00628 11.6499 8.35727 12.9858 10.0242 12.9858C11.6902 12.9858 13.0412 11.6499 13.0412 10.0019C13.0412 8.3539 11.6912 7.01892 10.0242 7.01892Z" fill="black"/>
</svg>
