<svg width="84" height="84" viewBox="0 0 84 84" fill="none" xmlns="http://www.w3.org/2000/svg">
<path d="M41.6667 0C64.6792 0 83.3333 18.6542 83.3333 41.6667C83.3333 64.6792 64.6792 83.3333 41.6667 83.3333C18.6542 83.3333 0 64.6792 0 41.6667C0 18.6542 18.6542 0 41.6667 0ZM41.6667 8.33333C32.8261 8.33333 24.3477 11.8452 18.0964 18.0964C11.8452 24.3477 8.33333 32.8261 8.33333 41.6667C8.33333 50.5072 11.8452 58.9857 18.0964 65.2369C24.3477 71.4881 32.8261 75 41.6667 75C50.5072 75 58.9857 71.4881 65.2369 65.2369C71.4881 58.9857 75 50.5072 75 41.6667C75 32.8261 71.4881 24.3477 65.2369 18.0964C58.9857 11.8452 50.5072 8.33333 41.6667 8.33333ZM41.6667 16.6667C42.6872 16.6668 43.6722 17.0415 44.4349 17.7196C45.1975 18.3978 45.6848 19.3323 45.8042 20.3458L45.8333 20.8333V39.9417L57.1125 51.2208C57.8598 51.9707 58.2936 52.9768 58.3259 54.0349C58.3583 55.0931 57.9866 56.1238 57.2865 56.9178C56.5863 57.7118 55.6102 58.2096 54.5564 58.31C53.5025 58.4104 52.45 58.1059 51.6125 57.4583L51.2208 57.1125L38.7208 44.6125C38.0732 43.9644 37.6573 43.1208 37.5375 42.2125L37.5 41.6667V20.8333C37.5 19.7283 37.939 18.6685 38.7204 17.8871C39.5018 17.1057 40.5616 16.6667 41.6667 16.6667Z" fill="#F93C00"/>
</svg>
